<?xml version="1.0" encoding="UTF-8"?>
<svg id="Capa_1" data-name="Capa 1" xmlns="http://www.w3.org/2000/svg" xmlns:xlink="http://www.w3.org/1999/xlink" viewBox="0 0 318.01 233.85">
  <defs>
    <style>
      .cls-1 {
        fill: none;
      }

      .cls-2 {
        fill: #baa276;
      }

      .cls-3 {
        fill: url(#Motivo_nuevo);
        opacity: .45;
      }
    </style>
    <pattern id="Motivo_nuevo" data-name="Motivo nuevo" x="0" y="0" width="115.2" height="102.61" patternTransform="translate(-1648.6 -415.11)" patternUnits="userSpaceOnUse" viewBox="0 0 115.2 102.61">
      <g>
        <rect class="cls-1" y="0" width="115.2" height="102.61"/>
        <g>
          <g>
            <path class="cls-2" d="M100.59,153.92l7.44-9.52.48-66.96,7.7-1.49v59.11l8.15-7.9-.03-52.01,8.29-.81-.03,46.15,7.65-5.51v-41.1l6.3-1v39.1l7.04-3.1v-41.7c-20.7,1.1-33.8,1.85-56.69,7.34-6.77,2.69-3.11,8.34,2.4,9.1l.1-3.85.7-.05.49,74.2Z"/>
            <path class="cls-2" d="M85.87,72.66c-2.14-.22-1.96-2.05-.51-3.65.47-.52,1.09-.89,1.75-1.14,16.34-5.97,33.62-8.53,51.46-8.78,3.79-.11,15,.39,15,.39l.02,4.27h-8.9c-18.79-.23-37.42,2.09-55.23,7.94,0,0-2.48,1.08-3.59.96Z"/>
          </g>
          <path class="cls-2" d="M78.58,64.89c-2.37-.22-2.18-2.05-.56-3.65.53-.52,1.21-.89,1.94-1.14,18.1-5.97,37.25-8.53,57-8.78,4.2-.11,16.62.39,16.62.39l.02,4.27-6.98-.55c-1.59,0-4.73-.11-5.51-.11-22.68.08-39.16,2.84-58.55,8.59,0,0-2.75,1.08-3.98.96Z"/>
        </g>
        <g>
          <g>
            <path class="cls-2" d="M-14.61,153.92l7.44-9.52.48-66.96,7.7-1.49v59.11l8.15-7.9-.03-52.01,8.29-.81-.03,46.15,7.65-5.51v-41.1l6.3-1v39.1l7.04-3.1v-41.7c-20.7,1.1-33.8,1.85-56.69,7.34-6.77,2.69-3.11,8.34,2.4,9.1l.1-3.85.7-.05.49,74.2Z"/>
            <path class="cls-2" d="M-29.33,72.66c-2.14-.22-1.96-2.05-.51-3.65.47-.52,1.09-.89,1.75-1.14,16.34-5.97,33.62-8.53,51.46-8.78,3.79-.11,15,.39,15,.39l.02,4.27h-8.9c-18.79-.23-37.42,2.09-55.23,7.94,0,0-2.48,1.08-3.59.96Z"/>
          </g>
          <path class="cls-2" d="M-36.62,64.89c-2.37-.22-2.18-2.05-.56-3.65.53-.52,1.21-.89,1.94-1.14,18.1-5.97,37.25-8.53,57-8.78,4.2-.11,16.62.39,16.62.39l.02,4.27-6.98-.55c-1.59,0-4.73-.11-5.51-.11-22.68.08-39.16,2.84-58.55,8.59,0,0-2.75,1.08-3.98.96Z"/>
        </g>
        <path class="cls-2" d="M100.59,51.31l7.44-9.52.48-66.96,7.7-1.49v59.11l8.15-7.9-.03-52.01,8.29-.81-.03,46.15,7.65-5.51V-28.73l6.3-1V9.37l7.04-3.1v-41.7c-20.7,1.1-33.8,1.85-56.69,7.34-6.77,2.69-3.11,8.34,2.4,9.1l.1-3.85.7-.05.49,74.2Z"/>
        <g>
          <g>
            <path class="cls-2" d="M42.99,102.61l7.44-9.52.48-66.96,7.7-1.49v59.11l8.15-7.9-.03-52.01,8.29-.81-.03,46.15,7.65-5.51V22.58l6.3-1v39.1l7.04-3.1V15.88c-20.7,1.1-33.8,1.85-56.69,7.34-6.77,2.69-3.11,8.34,2.4,9.1l.1-3.85.7-.05.49,74.2Z"/>
            <path class="cls-2" d="M28.27,21.35c-2.14-.22-1.96-2.05-.51-3.65.47-.52,1.09-.89,1.75-1.14,16.34-5.97,33.62-8.53,51.46-8.78,3.79-.11,15,.39,15,.39l.02,4.27h-8.9c-18.79-.23-37.42,2.09-55.23,7.94,0,0-2.48,1.08-3.59.96Z"/>
          </g>
          <path class="cls-2" d="M20.98,13.58c-2.37-.22-2.18-2.05-.56-3.65.53-.52,1.21-.89,1.94-1.14C40.46,2.83,59.6.27,79.36.01c4.2-.11,16.62.39,16.62.39l.02,4.27-6.98-.55c-1.59,0-4.73-.11-5.51-.11-22.68.08-39.16,2.84-58.55,8.59,0,0-2.75,1.08-3.98.96Z"/>
        </g>
        <path class="cls-2" d="M-14.61,51.31l7.44-9.52.48-66.96,7.7-1.49v59.11l8.15-7.9-.03-52.01,8.29-.81-.03,46.15,7.65-5.51V-28.73l6.3-1V9.37l7.04-3.1v-41.7c-20.7,1.1-33.8,1.85-56.69,7.34-6.77,2.69-3.11,8.34,2.4,9.1l.1-3.85.7-.05.49,74.2Z"/>
      </g>
    </pattern>
  </defs>
  <rect class="cls-3" width="318.01" height="233.85"/>
</svg>